# xmcd
#
# Track frame offsets:
#	150
#	10680
#	21213
#	29592
#	39110
#	55472
#	68122
#	76332
#	99747
#	112808
#	134240
#	149303
#	169089
#	183015
#	194954
#	225398
#	234146
#
# Disc length: 3153 seconds
#
# Revision: 0
# Processed by: cddbd v1.5PL3 Copyright (c) Steve Scherf et al.
# Submitted via: dBpowerAMP V4.0
#
DISCID=de0c4f11
DTITLE=Ñaco Goñi  and Malcom Scarpa - 1980-2000
DYEAR=2000
DGENRE=Blues
TTITLE0=Me and My Buddy
TTITLE1=Long Gone Lone-Some Blues
TTITLE2=Ida Red
TTITLE3=Blowing The Blues
TTITLE4=Crawling King Snake
TTITLE5=Rattlesnakin' Daddy
TTITLE6=She's a Hum-Dum Dinger
TTITLE7=The Jitter Live
TTITLE8=Goin' Away Party
TTITLE9=Black Snake Moan
TTITLE10=Black Nights
TTITLE11=Drunken Hearted Man
TTITLE12=Hot Nuts
TTITLE13=Honest I Do
TTITLE14=Drunken Hearted Man
TTITLE15=See That My Grave is Keep Clean
TTITLE16=Extra
EXTD=Ñaco Goñi  - Malcom Scarpa
EXTT0=
EXTT1=
EXTT2=
EXTT3=
EXTT4=
EXTT5=
EXTT6=
EXTT7=
EXTT8=
EXTT9=
EXTT10=
EXTT11=
EXTT12=
EXTT13=
EXTT14=
EXTT15=
EXTT16=
PLAYORDER=
